<svg width="65" height="65" viewBox="0 0 65 65" fill="none" xmlns="http://www.w3.org/2000/svg">
<rect width="65" height="65" rx="10" fill="#FF284C"/>
<g clip-path="url(#clip0_39_40)">
<path d="M20 19.0001C19.4696 19.0001 18.9609 19.2108 18.5858 19.5858C18.2107 19.9609 18 20.4696 18 21.0001C18 21.5305 18.2107 22.0392 18.5858 22.4143C18.9609 22.7893 19.4696 23.0001 20 23.0001C20.5304 23.0001 21.0391 22.7893 21.4142 22.4143C21.7893 22.0392 22 21.5305 22 21.0001C22 20.4696 21.7893 19.9609 21.4142 19.5858C21.0391 19.2108 20.5304 19.0001 20 19.0001ZM16 21.0001C15.999 20.0258 16.3537 19.0847 16.9974 18.3533C17.6411 17.622 18.5295 17.1507 19.496 17.028C20.4625 16.9052 21.4406 17.1394 22.2467 17.6867C23.0528 18.2339 23.6314 19.0565 23.874 20.0001H40.126C40.3025 19.3174 40.6564 18.6935 41.1517 18.1917C41.647 17.6898 42.2661 17.3278 42.9464 17.1423C43.6267 16.9568 44.3439 16.9545 45.0254 17.1355C45.7069 17.3165 46.3285 17.6744 46.8271 18.173C47.3257 18.6716 47.6836 19.2931 47.8646 19.9746C48.0456 20.6561 48.0432 21.3733 47.8578 22.0536C47.6723 22.7339 47.3103 23.3531 46.8084 23.8484C46.3065 24.3437 45.6827 24.6975 45 24.8741V41.1261C45.6827 41.3026 46.3065 41.6564 46.8084 42.1517C47.3103 42.647 47.6723 43.2662 47.8578 43.9465C48.0432 44.6268 48.0456 45.344 47.8646 46.0255C47.6836 46.707 47.3257 47.3285 46.8271 47.8271C46.3285 48.3257 45.7069 48.6836 45.0254 48.8646C44.3439 49.0457 43.6267 49.0433 42.9464 48.8578C42.2661 48.6723 41.647 48.3103 41.1517 47.8085C40.6564 47.3066 40.3025 46.6827 40.126 46.0001H23.874C23.6975 46.6827 23.3436 47.3066 22.8483 47.8085C22.353 48.3103 21.7339 48.6723 21.0536 48.8578C20.3733 49.0433 19.6561 49.0457 18.9746 48.8646C18.2931 48.6836 17.6715 48.3257 17.1729 47.8271C16.6744 47.3285 16.3164 46.707 16.1354 46.0255C15.9544 45.344 15.9568 44.6268 16.1422 43.9465C16.3277 43.2662 16.6897 42.647 17.1916 42.1517C17.6935 41.6564 18.3173 41.3026 19 41.1261V24.8741C18.1412 24.6523 17.3805 24.1514 16.8374 23.4502C16.2944 22.7489 15.9998 21.887 16 21.0001ZM21 24.8741V41.1261C22.406 41.4861 23.512 42.5941 23.874 44.0001H40.126C40.3053 43.3083 40.6664 42.6771 41.1717 42.1717C41.677 41.6664 42.3082 41.3054 43 41.1261V24.8741C42.3082 24.6947 41.677 24.3337 41.1717 23.8284C40.6664 23.3231 40.3053 22.6918 40.126 22.0001H23.874C23.6947 22.6918 23.3336 23.3231 22.8283 23.8284C22.323 24.3337 21.6918 24.6947 21 24.8741ZM44 19.0001C43.4696 19.0001 42.9609 19.2108 42.5858 19.5858C42.2107 19.9609 42 20.4696 42 21.0001C42 21.5305 42.2107 22.0392 42.5858 22.4143C42.9609 22.7893 43.4696 23.0001 44 23.0001C44.5304 23.0001 45.0391 22.7893 45.4142 22.4143C45.7893 22.0392 46 21.5305 46 21.0001C46 20.4696 45.7893 19.9609 45.4142 19.5858C45.0391 19.2108 44.5304 19.0001 44 19.0001ZM20 43.0001C19.4696 43.0001 18.9609 43.2108 18.5858 43.5858C18.2107 43.9609 18 44.4696 18 45.0001C18 45.5305 18.2107 46.0392 18.5858 46.4143C18.9609 46.7893 19.4696 47.0001 20 47.0001C20.5304 47.0001 21.0391 46.7893 21.4142 46.4143C21.7893 46.0392 22 45.5305 22 45.0001C22 44.4696 21.7893 43.9609 21.4142 43.5858C21.0391 43.2108 20.5304 43.0001 20 43.0001ZM44 43.0001C43.4696 43.0001 42.9609 43.2108 42.5858 43.5858C42.2107 43.9609 42 44.4696 42 45.0001C42 45.5305 42.2107 46.0392 42.5858 46.4143C42.9609 46.7893 43.4696 47.0001 44 47.0001C44.5304 47.0001 45.0391 46.7893 45.4142 46.4143C45.7893 46.0392 46 45.5305 46 45.0001C46 44.4696 45.7893 43.9609 45.4142 43.5858C45.0391 43.2108 44.5304 43.0001 44 43.0001Z" fill="white"/>
</g>
<defs>
<clipPath id="clip0_39_40">
<rect width="32" height="32" fill="white" transform="translate(16 17)"/>
</clipPath>
</defs>
</svg>
