<svg width="65" height="65" viewBox="0 0 65 65" fill="none" xmlns="http://www.w3.org/2000/svg">
<rect width="65" height="65" rx="10" fill="#FF284C"/>
<path d="M18.625 32.5H32.5V34.8125H18.625V32.5ZM16.3125 26.7188H27.875V29.0312H16.3125V26.7188Z" fill="white"/>
<path d="M48.5938 33.2007L45.1251 25.1069C45.0361 24.8989 44.8879 24.7216 44.699 24.597C44.5101 24.4725 44.2888 24.4061 44.0625 24.4062H40.5937V22.0938C40.5937 21.7871 40.4719 21.493 40.2551 21.2762C40.0382 21.0593 39.7441 20.9375 39.4375 20.9375H20.9375V23.25H38.2812V37.7679C37.7544 38.0738 37.2933 38.481 36.9246 38.966C36.5558 39.451 36.2868 40.0042 36.1329 40.5938H28.8671C28.5856 39.5038 27.9164 38.5539 26.9847 37.9221C26.053 37.2903 24.9229 37.02 23.8061 37.1619C22.6894 37.3037 21.6628 37.848 20.9186 38.6926C20.1745 39.5373 19.7639 40.6243 19.7639 41.75C19.7639 42.8757 20.1745 43.9627 20.9186 44.8074C21.6628 45.652 22.6894 46.1963 23.8061 46.3381C24.9229 46.48 26.053 46.2097 26.9847 45.5779C27.9164 44.9461 28.5856 43.9962 28.8671 42.9062H36.1329C36.3845 43.8986 36.9597 44.7787 37.7676 45.4074C38.5755 46.0361 39.57 46.3775 40.5937 46.3775C41.6175 46.3775 42.6119 46.0361 43.4199 45.4074C44.2278 44.7787 44.803 43.8986 45.0546 42.9062H47.5312C47.8379 42.9062 48.132 42.7844 48.3488 42.5676C48.5657 42.3508 48.6875 42.0567 48.6875 41.75V33.6562C48.6875 33.4996 48.6557 33.3446 48.5938 33.2007ZM24.4062 44.0625C23.9489 44.0625 23.5018 43.9269 23.1215 43.6728C22.7412 43.4187 22.4448 43.0575 22.2698 42.635C22.0947 42.2124 22.0489 41.7474 22.1382 41.2989C22.2274 40.8503 22.4476 40.4382 22.7711 40.1148C23.0945 39.7914 23.5065 39.5712 23.9551 39.4819C24.4037 39.3927 24.8686 39.4385 25.2912 39.6135C25.7137 39.7886 26.0749 40.085 26.329 40.4652C26.5831 40.8455 26.7187 41.2926 26.7187 41.75C26.7181 42.3631 26.4743 42.951 26.0407 43.3845C25.6072 43.8181 25.0194 44.0619 24.4062 44.0625ZM40.5937 26.7188H43.2994L45.7784 32.5H40.5937V26.7188ZM40.5937 44.0625C40.1364 44.0625 39.6893 43.9269 39.309 43.6728C38.9287 43.4187 38.6323 43.0575 38.4573 42.635C38.2822 42.2124 38.2364 41.7474 38.3257 41.2989C38.4149 40.8503 38.6351 40.4382 38.9586 40.1148C39.282 39.7914 39.694 39.5712 40.1426 39.4819C40.5912 39.3927 41.0561 39.4385 41.4787 39.6135C41.9012 39.7886 42.2624 40.085 42.5165 40.4652C42.7706 40.8455 42.9062 41.2926 42.9062 41.75C42.9056 42.3631 42.6618 42.951 42.2282 43.3845C41.7947 43.8181 41.2069 44.0619 40.5937 44.0625ZM46.375 40.5938H45.0546C44.7999 39.6033 44.2237 38.7255 43.4164 38.0977C42.6091 37.47 41.6164 37.1278 40.5937 37.125V34.8125H46.375V40.5938Z" fill="white"/>
</svg>
