<svg width="65" height="65" viewBox="0 0 65 65" fill="none" xmlns="http://www.w3.org/2000/svg">
<rect width="65" height="65" rx="10" fill="#FF284C"/>
<path d="M21.875 27.8735C21.875 30.7265 23.0225 33.314 24.875 35.2085V45.875C24.874 46.131 24.9388 46.383 25.063 46.6069C25.1872 46.8308 25.3668 47.019 25.5845 47.1537C25.8023 47.2884 26.0509 47.365 26.3067 47.3761C26.5625 47.3873 26.8168 47.3327 27.0455 47.2175L32.375 44.552L37.7045 47.216C37.9326 47.3314 38.1866 47.3861 38.442 47.3748C38.6973 47.3635 38.9455 47.2866 39.1625 47.1515C39.605 46.877 39.875 46.3955 39.875 45.875V35.21C41.7983 33.2525 42.8757 30.6178 42.875 27.8735C42.875 22.085 38.165 17.375 32.375 17.375C26.585 17.375 21.875 22.085 21.875 27.8735ZM33.0455 41.5325C32.8371 41.4282 32.6073 41.3739 32.3743 41.3739C32.1412 41.3739 31.9114 41.4282 31.703 41.5325L27.875 43.448V37.3475C29.2415 37.9985 30.764 38.375 32.375 38.375C33.986 38.375 35.5085 38 36.875 37.3475V43.4465L33.0455 41.5325ZM32.375 20.375C36.509 20.375 39.875 23.738 39.875 27.8735C39.873 29.8622 39.0822 31.7688 37.6762 33.1751C36.2701 34.5815 34.3637 35.3726 32.375 35.375C28.2395 35.375 24.875 32.0105 24.875 27.8735C24.8774 25.8852 25.6684 23.9791 27.0744 22.5734C28.4805 21.1676 30.3867 20.377 32.375 20.375Z" fill="white"/>
</svg>
