<svg width="120" height="120" viewBox="0 0 120 120" fill="none" xmlns="http://www.w3.org/2000/svg">
<rect width="120" height="120" rx="10" fill="#272B38"/>
<path d="M37 44.8245C37 42.4841 37.9297 40.2395 39.5846 38.5846C41.2395 36.9297 43.4841 36 45.8245 36H72.2978C74.6382 36 76.8827 36.9297 78.5377 38.5846C80.1926 40.2395 81.1223 42.4841 81.1223 44.8245V67.0154C78.5538 67.0154 76.6385 67.5154 73.6385 70.0154C71.1385 72.5154 70.4772 74.2559 70.1308 76.0154C69.6385 78.5154 69.846 79.0154 69.8383 80.1223H45.8245C43.4841 80.1223 41.2395 79.1926 39.5846 77.5377C37.9297 75.8827 37 73.6382 37 71.2978V44.8245Z" stroke="white" stroke-width="2.5" stroke-linecap="round" stroke-linejoin="round"/>
<path d="M51.3397 55.8551C54.3857 55.8551 56.855 53.3858 56.855 50.3398C56.855 47.2938 54.3857 44.8245 51.3397 44.8245C48.2937 44.8245 45.8244 47.2938 45.8244 50.3398C45.8244 53.3858 48.2937 55.8551 51.3397 55.8551Z" stroke="white" stroke-width="2.5" stroke-linecap="round" stroke-linejoin="round"/>
<path d="M64.6338 59.4312L45.8244 80.1223H69.9159C69.4236 77.0154 71.2732 72.5104 72.6385 71.0154C74.3385 69.1539 75.1385 68.5154 77.6385 67.5154L81.1385 66.5154C81.1385 65.4873 80.6385 66.5154 79.6385 66.5154L71.1506 59.418C70.7363 58.966 70.2322 58.6053 69.6707 58.359C69.1092 58.1126 68.5024 57.9861 67.8893 57.9873C67.2761 57.9886 66.6699 58.1176 66.1094 58.3662C65.5488 58.6148 65.0463 58.9775 64.6338 59.4312Z" stroke="white" stroke-width="2.5" stroke-linecap="round" stroke-linejoin="round"/>
<circle cx="81.1243" cy="78.4592" r="11.238" stroke="white" stroke-width="2.5"/>
<path d="M81.1243 74.6585L81.1243 83.3458M84.925 78.4592L81.1243 74.6585L77.3236 78.4592" stroke="white" stroke-width="2.5" stroke-linecap="round" stroke-linejoin="round"/>
</svg>
