<svg width="120" height="120" viewBox="0 0 120 120" fill="none" xmlns="http://www.w3.org/2000/svg">
<rect width="120" height="120" rx="10" fill="#272B38"/>
<g clip-path="url(#clip0_17_238)">
<path d="M90.924 70.5747L90.9271 70.5776C92.091 71.6498 91.9937 73.4766 90.8358 74.4193L90.8333 74.4214L73.5095 88.6001C72.4253 89.4852 71.0886 89.959 69.7167 89.959H28.8333C28.5417 89.959 28.25 89.7015 28.25 89.334V78.084C28.25 77.7165 28.5417 77.459 28.8333 77.459H35.1812H35.6321L35.9791 77.1712L41.3065 72.7538C41.3067 72.7537 41.3068 72.7536 41.3069 72.7535C43.4927 70.944 46.2023 69.959 49 69.959H67.3333C68.7783 69.959 69.9784 71.2892 69.7202 72.892C69.5313 74.0586 68.4186 74.959 67.1385 74.959H58.1667C56.4416 74.959 55.0833 76.389 55.0833 78.084C55.0833 79.779 56.4416 81.209 58.1667 81.209H71.7219C73.6816 81.209 75.5779 80.536 77.098 79.2848C77.0986 79.2843 77.0993 79.2837 77.0999 79.2832L87.6841 70.6258L87.6881 70.6225C88.6971 69.7903 90.0956 69.8065 90.924 70.5747Z" stroke="white" stroke-width="2.5"/>
<path d="M46.3249 40.5187H73.2574V56.7612C73.2574 58.28 72.0261 59.5112 70.5074 59.5112H49.0749C47.5561 59.5112 46.3249 58.28 46.3249 56.7612V40.5187Z" stroke="white" stroke-width="2.5"/>
<line x1="52.6478" y1="45.4921" x2="66.8566" y2="45.4921" stroke="white" stroke-width="2.5" stroke-linecap="round"/>
<rect x="44.3041" y="34.25" width="30.9177" height="5.95071" rx="2.75" stroke="white" stroke-width="2.5"/>
</g>
<defs>
<clipPath id="clip0_17_238">
<rect width="65" height="65" fill="white" transform="translate(28 30)"/>
</clipPath>
</defs>
</svg>
