<svg width="120" height="120" viewBox="0 0 120 120" fill="none" xmlns="http://www.w3.org/2000/svg">
<rect width="120" height="120" rx="10" fill="#FF284C"/>
<path d="M83.0153 46.1408L58.7337 34L34.4521 46.1408V70.4224L58.7337 82.5632L69.567 77.3333L66.5785 69.1149L77.9722 73.014L83.0153 70.4224V46.1408Z" stroke="white" stroke-width="2.5" stroke-linejoin="round"/>
<path d="M34.4521 46.1408L58.7337 58.2816M58.7337 82.5632V58.2816M83.0153 46.1408L58.7337 58.2816M70.8745 40.0704L46.5929 52.2112" stroke="white" stroke-width="2.5" stroke-linecap="round" stroke-linejoin="round"/>
<path d="M66.2983 68.8348L75.2327 93.0853L77.8505 85.2307C78.2264 84.1027 78.8598 83.0778 79.7006 82.237C80.5413 81.3963 81.5662 80.7629 82.6942 80.3869L90.5488 77.7692L66.2983 68.8348Z" stroke="white" stroke-width="2.5" stroke-linejoin="round"/>
</svg>
