<svg width="65" height="65" viewBox="0 0 65 65" fill="none" xmlns="http://www.w3.org/2000/svg">
<rect width="65" height="65" rx="10" fill="#FF284C"/>
<path d="M18 39H46V41H18V39ZM18 43H46V45H18V43ZM40 27C39.6044 27 39.2178 27.1173 38.8889 27.3371C38.56 27.5568 38.3036 27.8692 38.1522 28.2346C38.0009 28.6001 37.9613 29.0022 38.0384 29.3902C38.1156 29.7781 38.3061 30.1345 38.5858 30.4142C38.8655 30.6939 39.2219 30.8844 39.6098 30.9616C39.9978 31.0387 40.3999 30.9991 40.7654 30.8478C41.1308 30.6964 41.4432 30.44 41.6629 30.1111C41.8827 29.7822 42 29.3956 42 29C42 28.4696 41.7893 27.9609 41.4142 27.5858C41.0391 27.2107 40.5304 27 40 27ZM32 33C31.2089 33 30.4355 32.7654 29.7777 32.3259C29.1199 31.8864 28.6072 31.2616 28.3045 30.5307C28.0017 29.7998 27.9225 28.9956 28.0769 28.2196C28.2312 27.4437 28.6122 26.731 29.1716 26.1716C29.731 25.6122 30.4437 25.2312 31.2196 25.0769C31.9956 24.9225 32.7998 25.0017 33.5307 25.3045C34.2616 25.6072 34.8864 26.1199 35.3259 26.7777C35.7654 27.4355 36 28.2089 36 29C35.9987 30.0605 35.5768 31.0771 34.827 31.827C34.0771 32.5768 33.0605 32.9987 32 33V33ZM32 27C31.6044 27 31.2178 27.1173 30.8889 27.3371C30.56 27.5568 30.3036 27.8692 30.1522 28.2346C30.0009 28.6001 29.9613 29.0022 30.0384 29.3902C30.1156 29.7781 30.3061 30.1345 30.5858 30.4142C30.8655 30.6939 31.2219 30.8844 31.6098 30.9616C31.9978 31.0387 32.3999 30.9991 32.7654 30.8478C33.1308 30.6964 33.4432 30.44 33.6629 30.1111C33.8827 29.7822 34 29.3956 34 29C33.9995 28.4697 33.7886 27.9613 33.4136 27.5864C33.0387 27.2114 32.5303 27.0005 32 27ZM24 27C23.6044 27 23.2178 27.1173 22.8889 27.3371C22.56 27.5568 22.3036 27.8692 22.1522 28.2346C22.0009 28.6001 21.9613 29.0022 22.0384 29.3902C22.1156 29.7781 22.3061 30.1345 22.5858 30.4142C22.8655 30.6939 23.2219 30.8844 23.6098 30.9616C23.9978 31.0387 24.3999 30.9991 24.7654 30.8478C25.1308 30.6964 25.4432 30.44 25.6629 30.1111C25.8827 29.7822 26 29.3956 26 29C26 28.4696 25.7893 27.9609 25.4142 27.5858C25.0391 27.2107 24.5304 27 24 27Z" fill="white"/>
<path d="M44 37H20C19.47 36.9987 18.962 36.7875 18.5872 36.4128C18.2125 36.038 18.0013 35.53 18 35V23C18.0013 22.47 18.2125 21.962 18.5872 21.5872C18.962 21.2125 19.47 21.0013 20 21H44C44.53 21.0013 45.038 21.2125 45.4128 21.5872C45.7875 21.962 45.9987 22.47 46 23V35C45.9992 35.5302 45.7882 36.0384 45.4133 36.4133C45.0384 36.7882 44.5302 36.9992 44 37V37ZM44 23H20V35H44V23Z" fill="white"/>
</svg>
