<svg width="65" height="65" viewBox="0 0 65 65" fill="none" xmlns="http://www.w3.org/2000/svg">
<rect width="65" height="65" rx="10" fill="#FF284C"/>
<g clip-path="url(#clip0_39_45)">
<path d="M19.3123 29.6154L29.0466 39.6064L24.3591 29.6154H19.3123ZM31.9998 41.2139L37.4529 29.6154H26.5466L31.9998 41.2139ZM24.406 27.6923L27.5935 21.9231H23.4998L18.9998 27.6923H24.406ZM34.9529 39.6064L44.6873 29.6154H39.6404L34.9529 39.6064ZM26.6716 27.6923H37.3279L34.1404 21.9231H29.8591L26.6716 27.6923ZM39.5935 27.6923H44.9998L40.4998 21.9231H36.406L39.5935 27.6923ZM41.7966 20.3906L47.7966 28.0829C47.9425 28.2632 48.0102 28.4711 47.9998 28.7064C47.9893 28.9418 47.9008 29.1446 47.7341 29.3149L32.7341 44.6995C32.5466 44.8998 32.3018 45 31.9998 45C31.6977 45 31.4529 44.8998 31.2654 44.6995L16.2654 29.3149C16.0987 29.1446 16.0102 28.9418 15.9998 28.7064C15.9893 28.4711 16.0571 28.2632 16.2029 28.0829L22.2029 20.3906C22.3904 20.1302 22.656 20 22.9998 20H40.9998C41.3435 20 41.6091 20.1302 41.7966 20.3906Z" fill="white"/>
</g>
<defs>
<clipPath id="clip0_39_45">
<rect width="32" height="25" fill="white" transform="translate(16 20)"/>
</clipPath>
</defs>
</svg>
